<?xml version="1.0" encoding="utf-8"?>
<!-- Generator: Adobe Illustrator 16.0.0, SVG Export Plug-In . SVG Version: 6.00 Build 0)  -->
<!DOCTYPE svg PUBLIC "-//W3C//DTD SVG 1.1//EN" "http://www.w3.org/Graphics/SVG/1.1/DTD/svg11.dtd">
<svg version="1.1" id="Layer_1" xmlns="http://www.w3.org/2000/svg" xmlns:xlink="http://www.w3.org/1999/xlink" x="0px" y="0px"
	 width="40.635px" height="42px" viewBox="0 0 40.635 42" enable-background="new 0 0 40.635 42" xml:space="preserve">
<g>
	<path fill="#F3BA1A" d="M39.726,10.097l-0.013-0.048c-0.98-3.963-5.399-8.216-9.458-9.101l-0.046-0.009
		c-6.564-1.252-13.221-1.252-19.784,0l-0.047,0.009C6.32,1.833,1.901,6.086,0.92,10.049l-0.012,0.048
		c-1.211,5.535-1.211,11.147,0,16.682l0.012,0.049c0.939,3.793,5.029,7.851,8.937,8.967v4.423c0,1.601,1.952,2.388,3.062,1.232
		l4.481-4.659c0.972,0.055,1.945,0.085,2.918,0.085c3.305,0,6.61-0.313,9.892-0.938l0.046-0.01c4.059-0.885,8.478-5.137,9.458-9.1
		l0.013-0.049C40.938,21.245,40.938,15.632,39.726,10.097L39.726,10.097z M36.178,25.977c-0.653,2.585-4.01,5.8-6.676,6.394
		c-3.49,0.664-7.009,0.947-10.523,0.851c-0.069-0.002-0.137,0.024-0.186,0.075c-0.498,0.511-3.272,3.358-3.272,3.358l-3.481,3.572
		c-0.254,0.266-0.701,0.086-0.701-0.281v-7.328c0-0.12-0.086-0.224-0.205-0.246l-0.002-0.001c-2.667-0.594-6.021-3.809-6.676-6.394
		c-1.092-5.002-1.092-10.074,0-15.077c0.655-2.585,4.009-5.8,6.676-6.394c6.096-1.16,12.276-1.16,18.371,0
		C32.17,5.1,35.524,8.314,36.178,10.9C37.271,15.902,37.271,20.974,36.178,25.977L36.178,25.977z M36.178,25.977"/>
	<path fill="#F3BA1A" d="M26.117,29.359c-0.41-0.125-0.801-0.208-1.163-0.359c-3.76-1.559-7.22-3.57-9.96-6.656
		c-1.558-1.753-2.777-3.733-3.809-5.829c-0.489-0.994-0.901-2.026-1.321-3.052c-0.383-0.936,0.181-1.902,0.774-2.607
		c0.559-0.662,1.275-1.168,2.052-1.542c0.606-0.291,1.204-0.123,1.647,0.391c0.957,1.111,1.836,2.279,2.548,3.566
		c0.438,0.792,0.318,1.76-0.476,2.299c-0.192,0.131-0.369,0.285-0.549,0.433c-0.156,0.13-0.305,0.261-0.413,0.436
		c-0.197,0.322-0.207,0.701-0.079,1.05c0.978,2.689,2.627,4.78,5.333,5.905c0.434,0.181,0.868,0.39,1.367,0.332
		c0.836-0.098,1.106-1.014,1.691-1.492c0.572-0.468,1.304-0.475,1.92-0.084c0.617,0.39,1.215,0.809,1.809,1.232
		c0.583,0.415,1.164,0.821,1.702,1.295c0.518,0.457,0.695,1.054,0.404,1.672c-0.533,1.133-1.31,2.074-2.429,2.676
		C26.851,29.195,26.474,29.25,26.117,29.359C25.707,29.234,26.474,29.25,26.117,29.359L26.117,29.359z M26.117,29.359"/>
	<g>
		<g>
			<path fill="#F3BA1A" d="M20.327,8.02c4.917,0.138,8.956,3.401,9.821,8.262c0.146,0.829,0.199,1.676,0.266,2.516
				c0.027,0.354-0.172,0.69-0.555,0.694c-0.394,0.005-0.571-0.325-0.597-0.678c-0.051-0.7-0.086-1.403-0.183-2.096
				c-0.509-3.663-3.43-6.694-7.075-7.344c-0.549-0.098-1.11-0.124-1.666-0.182c-0.351-0.037-0.812-0.058-0.889-0.495
				c-0.066-0.366,0.243-0.657,0.592-0.676C20.137,8.015,20.232,8.02,20.327,8.02C25.244,8.158,20.232,8.02,20.327,8.02L20.327,8.02z
				 M20.327,8.02"/>
			<path fill="#F3BA1A" d="M27.8,17.707c-0.008,0.062-0.013,0.206-0.048,0.342c-0.131,0.493-0.88,0.555-1.052,0.057
				c-0.051-0.148-0.059-0.316-0.06-0.476c-0.001-1.042-0.228-2.082-0.752-2.988c-0.541-0.932-1.365-1.715-2.333-2.188
				c-0.585-0.287-1.218-0.464-1.858-0.571c-0.28-0.046-0.563-0.074-0.845-0.114c-0.342-0.047-0.523-0.265-0.508-0.601
				c0.015-0.315,0.245-0.542,0.589-0.522c1.129,0.063,2.219,0.308,3.222,0.839c2.04,1.081,3.205,2.786,3.546,5.063
				c0.015,0.103,0.04,0.205,0.048,0.309C27.768,17.114,27.78,17.37,27.8,17.707C27.792,17.768,27.78,17.37,27.8,17.707L27.8,17.707z
				 M27.8,17.707"/>
			<path fill="#F3BA1A" d="M24.741,17.587c-0.411,0.008-0.632-0.22-0.674-0.597c-0.029-0.263-0.053-0.53-0.115-0.785
				c-0.124-0.504-0.392-0.971-0.815-1.28c-0.2-0.146-0.427-0.252-0.664-0.32c-0.302-0.087-0.615-0.063-0.917-0.137
				c-0.327-0.08-0.507-0.345-0.456-0.651c0.047-0.279,0.318-0.497,0.623-0.476c1.906,0.138,3.27,1.124,3.463,3.368
				c0.014,0.158,0.03,0.326-0.005,0.477C25.121,17.445,24.929,17.575,24.741,17.587C24.33,17.595,24.929,17.575,24.741,17.587
				L24.741,17.587z M24.741,17.587"/>
		</g>
	</g>
</g>
</svg>
