<?xml version="1.0" encoding="utf-8"?>
<!-- Generator: Adobe Illustrator 16.0.0, SVG Export Plug-In . SVG Version: 6.00 Build 0)  -->
<!DOCTYPE svg PUBLIC "-//W3C//DTD SVG 1.1//EN" "http://www.w3.org/Graphics/SVG/1.1/DTD/svg11.dtd">
<svg version="1.1" id="Layer_1" xmlns="http://www.w3.org/2000/svg" xmlns:xlink="http://www.w3.org/1999/xlink" x="0px" y="0px"
	 width="72.5px" height="58.25px" viewBox="0 0 72.5 58.25" enable-background="new 0 0 72.5 58.25" xml:space="preserve">
<g>
	<g>
		<path fill="#F3BA1A" d="M20.291,52.738c-2.352,0-4.479-1.296-5.552-3.383l-0.086-0.167c-1.549-3.02-0.372-6.766,2.621-8.356
			c1.805-0.961,3.443-2.417,4.603-3.993c-0.346,0.021-0.694,0.031-1.045,0.031c-9.021,0-15.321-6.221-15.321-15.128
			c0-8.803,6.632-15.192,15.77-15.192c5.777,0,10.578,2.43,13.519,6.842c0.022,0.033,0.043,0.065,0.065,0.098
			c2.698-4.268,7.559-6.94,13.467-6.94c5.804,0,10.579,2.428,13.454,6.84c2.368,3.469,3.726,8.47,3.726,13.737
			c0,10.788-5.589,19.864-15.332,24.902c-0.887,0.458-1.882,0.7-2.878,0.7c-2.374,0-4.577-1.377-5.613-3.509l-0.081-0.168
			c-1.467-3.007-0.288-6.626,2.697-8.21c1.824-0.967,3.467-2.428,4.613-4.003c-0.343,0.02-0.688,0.03-1.035,0.03
			c-4.012,0-7.484-1.23-10.105-3.38c-1.761,7.952-6.867,14.524-14.598,18.542C22.287,52.495,21.29,52.738,20.291,52.738z"/>
		<path fill="#FFFFFF" d="M48.332,11.55c4.295,0,7.436,1.731,9.295,4.615c1.858,2.692,2.885,6.859,2.885,10.962
			c0,8.354-4.003,16.001-12.629,20.461c-0.186,0.097-0.385,0.142-0.581,0.142c-0.459,0-0.901-0.252-1.116-0.694l-0.07-0.146
			c-0.292-0.599-0.056-1.316,0.533-1.629c4.455-2.363,8.086-6.805,8.799-11.082c0.256-1.09,0.385-2.051,0.385-3.013
			c0-0.008,0-0.017,0-0.024c-0.001-0.713-0.601-1.219-1.235-1.219c-0.226,0-0.455,0.063-0.665,0.204
			c-1.672,1.12-3.739,1.744-6.049,1.744c-6.025,0-10.32-3.718-10.32-10.128C37.563,15.652,42.113,11.55,48.332,11.55 M21.281,11.55
			c4.294,0,7.436,1.731,9.359,4.615c1.795,2.692,2.821,6.859,2.821,10.962c0,8.358-4.007,16.01-12.586,20.469
			c-0.187,0.097-0.387,0.143-0.583,0.143c-0.451,0-0.885-0.241-1.105-0.67L19.099,46.9c-0.309-0.602-0.076-1.336,0.521-1.653
			c4.445-2.366,8.069-6.8,8.84-11.069c0.256-1.025,0.32-1.987,0.32-2.948c0-0.029,0-0.059,0-0.088
			c-0.004-0.712-0.602-1.219-1.237-1.219c-0.225,0-0.455,0.063-0.665,0.204c-1.671,1.12-3.738,1.743-6.047,1.743
			c-6.026,0-10.321-3.718-10.321-10.128C10.511,15.652,15.063,11.55,21.281,11.55 M48.332,1.55c-5.223,0-9.878,1.688-13.451,4.563
			c-3.662-2.974-8.329-4.563-13.6-4.563c-11.84,0-20.77,8.681-20.77,20.192c0,8.126,4.149,14.7,10.648,17.939
			c-2.432,3.33-2.952,7.895-0.958,11.783l0.091,0.178c1.934,3.76,5.765,6.096,9.998,6.096c1.796,0,3.589-0.438,5.185-1.265
			c4.246-2.206,7.818-5.068,10.632-8.445c0.167,1.082,0.496,2.159,0.998,3.198l0.065,0.137c1.888,3.885,5.856,6.366,10.131,6.366
			c1.792,0,3.582-0.436,5.175-1.26c11.461-5.926,18.035-16.621,18.035-29.343c0-6.227-1.662-12.233-4.565-16.512
			C62.167,4.852,55.757,1.55,48.332,1.55L48.332,1.55z"/>
	</g>
</g>
</svg>
