<?xml version="1.0" encoding="utf-8"?>
<!-- Generator: Adobe Illustrator 16.0.0, SVG Export Plug-In . SVG Version: 6.00 Build 0)  -->
<!DOCTYPE svg PUBLIC "-//W3C//DTD SVG 1.1//EN" "http://www.w3.org/Graphics/SVG/1.1/DTD/svg11.dtd">
<svg version="1.1" id="Layer_1" xmlns="http://www.w3.org/2000/svg" xmlns:xlink="http://www.w3.org/1999/xlink" x="0px" y="0px"
	 width="72.5px" height="58.25px" viewBox="0 0 72.5 58.25" enable-background="new 0 0 72.5 58.25" xml:space="preserve">
<g>
	<g>
		<path fill="#F3BA1A" d="M50.475,52.299c-5.779,0-10.581-2.431-13.521-6.843c-0.021-0.032-0.043-0.065-0.064-0.098
			c-2.697,4.269-7.559,6.94-13.467,6.94c-5.805,0-10.58-2.429-13.455-6.841C7.6,41.99,6.243,36.989,6.243,31.722
			c0-10.788,5.588-19.864,15.332-24.902c0.888-0.458,1.882-0.7,2.877-0.7c2.374,0,4.578,1.377,5.614,3.509l0.07,0.144
			c1.478,3.035,0.298,6.652-2.687,8.234c-1.823,0.967-3.466,2.427-4.613,4.003c0.343-0.021,0.688-0.031,1.036-0.031
			c4.011,0,7.484,1.23,10.105,3.38c1.761-7.953,6.867-14.524,14.599-18.542c0.889-0.462,1.888-0.707,2.889-0.707
			c2.351,0,4.478,1.296,5.551,3.383l0.094,0.183c1.542,2.996,0.368,6.744-2.624,8.338c-1.808,0.962-3.447,2.418-4.607,3.995
			c0.346-0.021,0.694-0.031,1.045-0.031c9.021,0,15.321,6.221,15.321,15.128C66.243,45.909,59.611,52.299,50.475,52.299z"/>
		<path fill="#FFFFFF" d="M51.464,11.11c0.45,0,0.884,0.242,1.104,0.67l0.086,0.168c0.31,0.602,0.076,1.335-0.521,1.653
			c-4.445,2.366-8.069,6.8-8.84,11.069c-0.257,1.025-0.32,1.987-0.32,2.948c0,0.029,0.001,0.059,0.001,0.088
			c0.003,0.712,0.601,1.219,1.236,1.219c0.225,0,0.454-0.063,0.664-0.204c1.672-1.12,3.738-1.743,6.047-1.743
			c6.026,0,10.321,3.718,10.321,10.128c0,6.09-4.552,10.192-10.769,10.192c-4.295,0-7.438-1.73-9.359-4.615
			c-1.795-2.692-2.821-6.859-2.821-10.962c0-8.358,4.007-16.01,12.587-20.468C51.067,11.156,51.268,11.11,51.464,11.11
			 M24.452,11.119c0.46,0,0.902,0.252,1.117,0.694l0.071,0.146c0.292,0.599,0.055,1.317-0.533,1.629
			c-4.457,2.363-8.086,6.805-8.8,11.082c-0.256,1.089-0.384,2.051-0.384,3.013c0,0.008,0,0.017,0,0.025
			c0.001,0.712,0.6,1.218,1.235,1.218c0.226,0,0.456-0.063,0.666-0.204c1.671-1.12,3.739-1.744,6.048-1.744
			c6.025,0,10.32,3.718,10.32,10.128c0,6.09-4.551,10.192-10.769,10.192c-4.294,0-7.436-1.73-9.295-4.615
			c-1.858-2.692-2.884-6.859-2.884-10.962c0-8.354,4.002-16.001,12.628-20.461C24.057,11.165,24.256,11.119,24.452,11.119
			 M51.464,1.11L51.464,1.11L51.464,1.11c-1.802,0-3.598,0.439-5.196,1.271c-4.24,2.204-7.81,5.063-10.621,8.438
			c-0.169-1.095-0.504-2.186-1.016-3.237L34.56,7.436c-1.864-3.835-5.833-6.317-10.108-6.317c-1.79,0-3.578,0.435-5.17,1.257
			C7.816,8.304,1.243,19,1.243,31.722c0,6.228,1.663,12.235,4.565,16.513c3.779,5.763,10.189,9.064,17.614,9.064
			c5.222,0,9.877-1.688,13.451-4.563c3.661,2.974,8.328,4.563,13.602,4.563c11.84,0,20.769-8.681,20.769-20.192
			c0-8.127-4.149-14.701-10.649-17.94c2.438-3.335,2.954-7.904,0.952-11.793l-0.069-0.136C59.527,3.446,55.696,1.11,51.464,1.11
			L51.464,1.11z"/>
	</g>
</g>
</svg>
