<?xml version="1.0" encoding="utf-8"?>
<!-- Generator: Adobe Illustrator 16.0.0, SVG Export Plug-In . SVG Version: 6.00 Build 0)  -->
<!DOCTYPE svg PUBLIC "-//W3C//DTD SVG 1.1//EN" "http://www.w3.org/Graphics/SVG/1.1/DTD/svg11.dtd">
<svg version="1.1" id="Layer_1" xmlns="http://www.w3.org/2000/svg" xmlns:xlink="http://www.w3.org/1999/xlink" x="0px" y="0px"
	 width="87.5px" height="107.16px" viewBox="0 0 87.5 107.16" enable-background="new 0 0 87.5 107.16" xml:space="preserve">
<g>
	<g>
		<path fill="#010101" d="M43.75,67.141c-10.316,0-19.51-8.665-23.128-21.676c-3.385-0.037-6.127-2.802-6.127-6.195
			c0-3.241,2.447-5.885,5.691-6.15c0.684-0.056,1.292,0.456,1.348,1.144c0.057,0.688-0.456,1.292-1.144,1.348
			c-1.936,0.159-3.395,1.732-3.395,3.659c0,2.038,1.658,3.696,3.695,3.696c0.181,0,0.382-0.021,0.655-0.069
			c0.647-0.114,1.268,0.292,1.428,0.927c3.125,12.451,11.556,20.817,20.977,20.817s17.85-8.366,20.976-20.817
			c0.158-0.635,0.783-1.041,1.427-0.927c0.278,0.049,0.475,0.069,0.656,0.069c2.038,0,3.695-1.658,3.695-3.696
			c0-1.927-1.46-3.5-3.395-3.659c-0.688-0.056-1.2-0.66-1.145-1.348c0.057-0.688,0.676-1.202,1.348-1.144
			c3.245,0.266,5.691,2.91,5.691,6.15c0,3.394-2.742,6.159-6.127,6.195C63.259,58.476,54.066,67.141,43.75,67.141z"/>
	</g>
	<g>
		<path fill="#010101" d="M21.116,35.664L21.116,35.664c-0.327,0-0.653-0.019-0.976-0.058c-0.397-0.047-0.748-0.282-0.943-0.631
			s-0.212-0.771-0.044-1.134c0.106-0.229,0.488-1.477,0.968-7.895c0.049-0.652,0.592-1.157,1.247-1.157h11.106
			c0.453,0,0.871,0.245,1.091,0.641c0.221,0.395,0.21,0.879-0.027,1.265C30.08,32.312,25.437,35.664,21.116,35.664z M22.524,27.29
			c-0.235,2.923-0.45,4.704-0.641,5.825c2.724-0.344,5.716-2.474,8.231-5.825H22.524z"/>
	</g>
	<g>
		<path fill="#010101" d="M66.384,35.664C66.384,35.664,66.384,35.664,66.384,35.664c-4.32,0-8.964-3.353-12.423-8.969
			c-0.237-0.385-0.248-0.87-0.026-1.265c0.221-0.396,0.638-0.641,1.091-0.641h11.107c0.654,0,1.198,0.504,1.246,1.157
			c0.479,6.416,0.861,7.666,0.968,7.896c0.167,0.363,0.15,0.784-0.045,1.133c-0.195,0.349-0.546,0.583-0.942,0.63
			C67.035,35.645,66.71,35.664,66.384,35.664z M57.385,27.29c2.516,3.352,5.508,5.481,8.231,5.825
			c-0.191-1.12-0.405-2.902-0.641-5.825H57.385z"/>
	</g>
	<g>
		<g>
			<path fill="#010101" d="M65.73,20.561c-0.006,0-0.013-0.001-0.02,0H54.54c-0.595,0-1.107-0.419-1.226-1.002
				c-0.916-4.527-4.939-7.813-9.564-7.813c-4.626,0-8.649,3.286-9.567,7.813c-0.118,0.583-0.63,1.002-1.225,1.002h-11.17
				c-0.343,0-0.671-0.141-0.907-0.39c-0.236-0.249-0.359-0.584-0.341-0.926c0.157-2.941,0.301-6.246,0.385-8.841
				c0.221-6.713,3.661-9.325,5.691-10.284C26.783,0.041,26.965,0,27.15,0h33.198c0.185,0,0.367,0.041,0.533,0.12
				c2.032,0.959,5.473,3.57,5.692,10.283c0.084,2.539,0.223,5.743,0.374,8.62c0.022,0.092,0.033,0.189,0.033,0.289
				C66.98,20.001,66.421,20.561,65.73,20.561z M55.518,18.061h8.877c-0.13-2.591-0.246-5.34-0.319-7.576
				c-0.168-5.111-2.49-7.176-4.021-7.985H27.444c-1.531,0.809-3.852,2.875-4.02,7.985c-0.073,2.23-0.189,4.979-0.32,7.576h8.876
				c1.511-5.165,6.306-8.815,11.77-8.815C49.213,9.246,54.007,12.896,55.518,18.061z"/>
		</g>
		<g>
			<path fill="#010101" d="M32.472,27.291H21.367c-0.348,0-0.68-0.145-0.916-0.399c-0.237-0.255-0.356-0.597-0.331-0.943
				c0.144-1.924,0.285-4.18,0.42-6.703c0.036-0.664,0.583-1.183,1.248-1.183h11.17c0.375,0,0.73,0.168,0.967,0.458
				s0.332,0.671,0.258,1.039c-0.129,0.642-0.195,1.298-0.196,1.949c0,0.955,0.142,1.908,0.422,2.833
				c0.097,0.32,0.062,0.667-0.099,0.96l-0.191,0.356c-0.189,0.353-0.378,0.706-0.584,1.04
				C33.308,27.066,32.905,27.291,32.472,27.291z M22.71,24.791h9.038c0.042-0.078,0.084-0.157,0.126-0.235
				c-0.257-1-0.387-2.023-0.387-3.049c0-0.315,0.013-0.63,0.038-0.945h-8.553C22.887,22.083,22.799,23.498,22.71,24.791z"/>
		</g>
		<g>
			<path fill="#010101" d="M66.133,27.289H55.025c-0.435,0-0.838-0.226-1.065-0.596c-0.203-0.331-0.392-0.682-0.579-1.033
				l-0.193-0.359c-0.16-0.294-0.195-0.64-0.099-0.96c0.279-0.922,0.421-1.876,0.421-2.835c0-0.653-0.065-1.308-0.195-1.947
				c-0.074-0.368,0.021-0.749,0.258-1.04c0.237-0.29,0.593-0.458,0.968-0.458h11.171c0.664,0,1.213,0.52,1.248,1.184
				c0.133,2.49,0.274,4.745,0.42,6.701c0.026,0.347-0.094,0.688-0.33,0.943S66.48,27.289,66.133,27.289z M55.751,24.789h9.039
				c-0.091-1.305-0.178-2.719-0.263-4.228h-8.554c0.024,0.314,0.036,0.63,0.036,0.945c0,1.028-0.13,2.051-0.386,3.048
				C55.666,24.633,55.708,24.711,55.751,24.789z"/>
		</g>
		<g>
			<path fill="#010101" d="M43.75,33.766c-5.438,0-10.153-3.497-11.731-8.7c-0.2-0.661,0.173-1.358,0.833-1.559
				c0.661-0.198,1.359,0.173,1.559,0.833c1.256,4.143,5.009,6.926,9.339,6.926c4.33,0,8.083-2.783,9.339-6.926
				c0.201-0.66,0.902-1.032,1.559-0.833c0.661,0.201,1.034,0.898,0.834,1.559C53.903,30.27,49.188,33.766,43.75,33.766z"/>
		</g>
		<g>
			<path fill="#010101" d="M54.539,20.562c-0.583,0-1.104-0.409-1.225-1.002c-0.916-4.527-4.939-7.813-9.564-7.813
				c-4.626,0-8.649,3.286-9.566,7.813c-0.137,0.677-0.8,1.113-1.473,0.977c-0.677-0.137-1.114-0.796-0.977-1.473
				c1.151-5.688,6.205-9.817,12.016-9.817c5.81,0,10.863,4.128,12.016,9.817c0.137,0.677-0.301,1.336-0.978,1.473
				C54.704,20.554,54.621,20.562,54.539,20.562z"/>
		</g>
	</g>
	<g>
		<path fill="#010101" d="M43.75,26.895c-2.972,0-5.389-2.417-5.389-5.389c0-2.971,2.417-5.389,5.389-5.389s5.389,2.417,5.389,5.389
			C49.139,24.478,46.722,26.895,43.75,26.895z M43.75,18.617c-1.593,0-2.889,1.296-2.889,2.889c0,1.593,1.296,2.889,2.889,2.889
			c1.593,0,2.889-1.296,2.889-2.889C46.639,19.913,45.343,18.617,43.75,18.617z"/>
	</g>
	<g>
		<path fill="#010101" d="M37.442,40.211c-0.431,0-0.85-0.223-1.082-0.622c-0.587-1.009-1.622-1.612-2.769-1.612
			c-1.146,0-2.181,0.603-2.768,1.612c-0.348,0.598-1.113,0.798-1.709,0.452c-0.597-0.347-0.799-1.112-0.452-1.709
			c1.025-1.761,2.914-2.855,4.929-2.855c2.017,0,3.906,1.094,4.93,2.856c0.347,0.597,0.145,1.362-0.453,1.708
			C37.872,40.157,37.655,40.211,37.442,40.211z"/>
	</g>
	<g>
		<path fill="#010101" d="M56.744,40.211c-0.431,0-0.849-0.222-1.081-0.621c-0.588-1.01-1.623-1.613-2.769-1.613
			c-1.146,0-2.183,0.603-2.771,1.613c-0.349,0.597-1.112,0.797-1.709,0.451c-0.597-0.347-0.799-1.112-0.451-1.709
			c1.025-1.761,2.914-2.855,4.931-2.855c2.015,0,3.903,1.094,4.929,2.855c0.348,0.597,0.146,1.362-0.451,1.709
			C57.174,40.156,56.958,40.211,56.744,40.211z"/>
	</g>
	<g>
		<path fill="#010101" d="M43.75,56.462c-3.45,0-6.582-1.4-8.379-3.747c-0.42-0.548-0.316-1.333,0.232-1.752
			c0.549-0.42,1.333-0.316,1.752,0.232c1.308,1.707,3.758,2.768,6.395,2.768c2.635,0,5.086-1.061,6.397-2.769
			c0.421-0.547,1.206-0.65,1.752-0.23c0.548,0.42,0.651,1.205,0.23,1.753C50.33,55.062,47.197,56.462,43.75,56.462z"/>
	</g>
	<g>
		<path fill="#010101" d="M28.549,107.16c-0.403,0-0.798-0.194-1.039-0.554l-8.204-12.232c-0.322-0.479-0.273-1.117,0.118-1.542
			l4.222-4.596l-4.144-3.779c-0.273-0.249-0.422-0.606-0.407-0.976l0.66-15.959c-3.411,1.964-7.363,4.199-9.88,5.488
			C4.568,75.729,2.5,79.097,2.5,85.024v20.886c0,0.69-0.56,1.25-1.25,1.25S0,106.6,0,105.91V85.024
			c0-6.844,2.612-11.103,8.735-14.238c2.354-1.206,6.412-3.476,11.735-6.564c0.395-0.229,0.884-0.226,1.273,0.011
			c0.391,0.236,0.622,0.666,0.603,1.122l-0.73,17.648l4.64,4.231c0.246,0.225,0.392,0.537,0.407,0.869
			c0.015,0.331-0.104,0.655-0.329,0.9l-4.405,4.795l7.655,11.415c0.385,0.573,0.231,1.35-0.342,1.734
			C29.03,107.091,28.789,107.16,28.549,107.16z"/>
	</g>
	<g>
		<path fill="#010101" d="M39.138,107.16H28.547c-0.417,0-0.806-0.208-1.038-0.554l-8.204-12.232
			c-0.322-0.479-0.273-1.117,0.118-1.542l4.222-4.596L19.5,84.457c-0.273-0.249-0.422-0.606-0.407-0.976l0.754-18.23
			c0.018-0.427,0.252-0.815,0.622-1.029c4.863-2.821,9.086-5.34,9.086-5.34c0.349-0.21,0.778-0.233,1.15-0.068
			c0.372,0.167,0.639,0.503,0.717,0.903l8.941,45.955c0.071,0.366-0.025,0.745-0.262,1.033
			C39.865,106.993,39.512,107.16,39.138,107.16z M29.213,104.66h8.408l-8.313-42.724c-1.554,0.92-4.133,2.442-6.991,4.103
			l-0.702,16.963l4.641,4.232c0.246,0.225,0.392,0.537,0.407,0.869c0.015,0.331-0.104,0.655-0.329,0.9l-4.405,4.795L29.213,104.66z"
			/>
	</g>
	<g>
		<path fill="#010101" d="M43.75,84.634c-4.553,0-8.818-3.233-11.702-8.871c-0.314-0.615-0.071-1.368,0.543-1.683
			c0.615-0.313,1.367-0.071,1.682,0.544c2.441,4.772,5.895,7.51,9.476,7.51c0.69,0,1.25,0.56,1.25,1.25S44.44,84.634,43.75,84.634z"
			/>
	</g>
	<g>
		<path fill="#010101" d="M58.95,107.16c-0.239,0-0.481-0.068-0.695-0.212c-0.573-0.385-0.727-1.161-0.342-1.734l7.657-11.415
			l-4.406-4.795c-0.226-0.244-0.344-0.568-0.329-0.9c0.015-0.333,0.161-0.646,0.407-0.869l4.641-4.232l-0.731-17.647
			c-0.019-0.456,0.212-0.886,0.603-1.122c0.393-0.234,0.879-0.238,1.273-0.011c5.416,3.141,9.365,5.35,11.736,6.564
			c6.123,3.136,8.736,7.395,8.736,14.239v20.885c0,0.69-0.56,1.25-1.25,1.25S85,106.6,85,105.91V85.025
			c0-5.928-2.068-9.296-7.376-12.015c-2.109-1.08-5.428-2.924-9.881-5.488l0.662,15.959c0.016,0.369-0.134,0.727-0.407,0.976
			l-4.145,3.779l4.223,4.596c0.392,0.425,0.439,1.063,0.118,1.542l-8.205,12.232C59.748,106.965,59.353,107.16,58.95,107.16z"/>
	</g>
	<g>
		<path fill="#010101" d="M58.952,107.16H48.361c-0.373,0-0.728-0.167-0.965-0.455s-0.333-0.667-0.262-1.033l8.941-45.955
			c0.077-0.4,0.345-0.736,0.717-0.903c0.369-0.165,0.799-0.141,1.15,0.068c0.002,0.001,4.225,2.52,9.086,5.34
			c0.37,0.214,0.604,0.603,0.622,1.029l0.755,18.23c0.016,0.369-0.134,0.727-0.407,0.976l-4.145,3.779l4.223,4.596
			c0.392,0.425,0.439,1.063,0.118,1.542l-8.205,12.232C59.758,106.952,59.369,107.16,58.952,107.16z M49.878,104.66h8.407
			l7.286-10.861l-4.406-4.795c-0.226-0.244-0.344-0.568-0.329-0.9s0.161-0.646,0.407-0.869l4.641-4.232l-0.702-16.963
			c-2.857-1.66-5.438-3.183-6.991-4.103L49.878,104.66z"/>
	</g>
	<g>
		<path fill="#010101" d="M43.75,84.634c-0.69,0-1.25-0.56-1.25-1.25s0.56-1.25,1.25-1.25c3.581,0,7.034-2.737,9.475-7.51
			c0.315-0.615,1.067-0.856,1.683-0.544c0.614,0.314,0.857,1.067,0.544,1.683C52.567,81.401,48.303,84.634,43.75,84.634z"/>
	</g>
	<g>
		<path fill="#010101" d="M74.001,107.16c-0.69,0-1.25-0.56-1.25-1.25v-8.615h-7.185c-0.69,0-1.25-0.56-1.25-1.25
			s0.56-1.25,1.25-1.25h8.435c0.69,0,1.25,0.56,1.25,1.25v9.865C75.251,106.6,74.691,107.16,74.001,107.16z"/>
	</g>
	<g>
		<path fill="#010101" d="M76.618,80.541c-0.69,0-1.25-0.56-1.25-1.25v-8.223c0-0.69,0.56-1.25,1.25-1.25s1.25,0.56,1.25,1.25v8.223
			C77.868,79.981,77.309,80.541,76.618,80.541z"/>
	</g>
	<g>
		<path fill="#010101" d="M9.932,79.164c-0.69,0-1.25-0.56-1.25-1.25v-6.34c0-0.69,0.56-1.25,1.25-1.25s1.25,0.56,1.25,1.25v6.34
			C11.182,78.604,10.623,79.164,9.932,79.164z"/>
	</g>
	<g>
		<path fill="#010101" d="M13.643,104.929c-0.69,0-1.25-0.56-1.25-1.25v-7.635c0-0.69,0.56-1.25,1.25-1.25s1.25,0.56,1.25,1.25
			v7.635C14.893,104.37,14.333,104.929,13.643,104.929z"/>
	</g>
	<g>
		<path fill="#010101" d="M17.46,101.112H9.825c-0.69,0-1.25-0.56-1.25-1.25s0.56-1.25,1.25-1.25h7.635c0.69,0,1.25,0.56,1.25,1.25
			S18.15,101.112,17.46,101.112z"/>
	</g>
</g>
</svg>
