<?xml version="1.0" encoding="utf-8"?>
<!-- Generator: Adobe Illustrator 16.0.0, SVG Export Plug-In . SVG Version: 6.00 Build 0)  -->
<!DOCTYPE svg PUBLIC "-//W3C//DTD SVG 1.1//EN" "http://www.w3.org/Graphics/SVG/1.1/DTD/svg11.dtd">
<svg version="1.1" id="Layer_1" xmlns="http://www.w3.org/2000/svg" xmlns:xlink="http://www.w3.org/1999/xlink" x="0px" y="0px"
	 width="103.622px" height="22.587px" viewBox="0 0 103.622 22.587" enable-background="new 0 0 103.622 22.587"
	 xml:space="preserve">
<g>
	<line fill="none" stroke="#F9D757" stroke-miterlimit="10" x1="0" y1="10.053" x2="103.622" y2="10.053"/>
	<rect x="23.477" fill="#FFFFFF" width="56.668" height="22.587"/>
	<g>
		<path fill="#F3BA1A" d="M45.348,15.058c-0.691-0.789-1.037-1.803-1.037-3.041c0-1.99,0.576-3.701,1.729-5.133
			c1.049-1.303,2.393-2.294,4.033-2.975c0.279-0.114,0.598,0.002,0.732,0.271l0,0c0.146,0.293,0.016,0.648-0.287,0.777
			c-1.27,0.543-2.314,1.275-3.131,2.198c-0.936,1.056-1.402,2.167-1.402,3.331c0,0.17,0.055,0.322,0.164,0.455
			c0.109,0.135,0.262,0.201,0.455,0.201c0.195,0,0.486-0.098,0.875-0.292c0.436-0.218,0.848-0.327,1.236-0.327
			c0.68,0,1.281,0.23,1.803,0.691s0.783,1.105,0.783,1.93c0,0.971-0.316,1.729-0.947,2.275s-1.359,0.819-2.184,0.819
			C46.981,16.24,46.04,15.846,45.348,15.058z M53.358,15.058c-0.691-0.789-1.037-1.803-1.037-3.041c0-1.99,0.576-3.701,1.729-5.133
			c1.049-1.303,2.393-2.294,4.033-2.975c0.279-0.114,0.598,0.002,0.732,0.271l0,0c0.146,0.293,0.016,0.648-0.287,0.777
			c-1.271,0.543-2.314,1.275-3.131,2.198c-0.936,1.056-1.402,2.167-1.402,3.331c0,0.17,0.055,0.322,0.164,0.455
			c0.109,0.135,0.262,0.201,0.455,0.201s0.486-0.098,0.875-0.292c0.436-0.218,0.848-0.327,1.236-0.327
			c0.68,0,1.281,0.23,1.803,0.691s0.783,1.105,0.783,1.93c0,0.971-0.316,1.729-0.947,2.275s-1.359,0.819-2.184,0.819
			C54.991,16.24,54.049,15.846,53.358,15.058z"/>
	</g>
</g>
</svg>
