<?xml version="1.0" encoding="utf-8"?>
<!-- Generator: Adobe Illustrator 16.0.0, SVG Export Plug-In . SVG Version: 6.00 Build 0)  -->
<!DOCTYPE svg PUBLIC "-//W3C//DTD SVG 1.1//EN" "http://www.w3.org/Graphics/SVG/1.1/DTD/svg11.dtd">
<svg version="1.1" id="Layer_1" xmlns="http://www.w3.org/2000/svg" xmlns:xlink="http://www.w3.org/1999/xlink" x="0px" y="0px"
	 width="132.5px" height="76.221px" viewBox="0 0 132.5 76.221" enable-background="new 0 0 132.5 76.221" xml:space="preserve">
<g>
	<g>
		<path fill="#010101" d="M96.16,68.251H27.908V46.107c0-0.69,0.56-1.25,1.25-1.25s1.25,0.56,1.25,1.25v19.645H93.66V2.5H30.408
			v14.344c0,0.69-0.56,1.25-1.25,1.25s-1.25-0.56-1.25-1.25V0H96.16V68.251z"/>
	</g>
	<g>
		<path fill="#010101" d="M132.5,68.251H93.66V14.35h23.614L132.5,27.307V68.251z M96.16,65.751H130V28.463L116.354,16.85H96.16
			V65.751z"/>
	</g>
	<g>
		<circle fill="#FFFFFF" cx="51.956" cy="67.001" r="7.97"/>
		<path fill="#010101" d="M51.956,76.221c-5.084,0-9.22-4.136-9.22-9.22s4.136-9.22,9.22-9.22s9.22,4.136,9.22,9.22
			S57.04,76.221,51.956,76.221z M51.956,60.281c-3.706,0-6.72,3.015-6.72,6.72s3.015,6.72,6.72,6.72c3.705,0,6.72-3.015,6.72-6.72
			S55.661,60.281,51.956,60.281z"/>
	</g>
	<g>
		<circle fill="#FFFFFF" cx="113.081" cy="67.001" r="7.97"/>
		<path fill="#010101" d="M113.081,76.221c-5.084,0-9.22-4.136-9.22-9.22s4.136-9.22,9.22-9.22s9.22,4.136,9.22,9.22
			S118.165,76.221,113.081,76.221z M113.081,60.281c-3.705,0-6.72,3.015-6.72,6.72s3.015,6.72,6.72,6.72s6.72-3.015,6.72-6.72
			S116.786,60.281,113.081,60.281z"/>
	</g>
	<g>
		<path fill="#010101" d="M42.594,18.094H15.725c-0.69,0-1.25-0.56-1.25-1.25s0.56-1.25,1.25-1.25h26.869
			c0.69,0,1.25,0.56,1.25,1.25S43.285,18.094,42.594,18.094z"/>
	</g>
	<g>
		<path fill="#010101" d="M7.592,18.094H1.25c-0.69,0-1.25-0.56-1.25-1.25s0.56-1.25,1.25-1.25h6.342c0.69,0,1.25,0.56,1.25,1.25
			S8.282,18.094,7.592,18.094z"/>
	</g>
	<g>
		<path fill="#010101" d="M42.594,32.798H2.236c-0.69,0-1.25-0.56-1.25-1.25s0.56-1.25,1.25-1.25h40.358c0.69,0,1.25,0.56,1.25,1.25
			S43.285,32.798,42.594,32.798z"/>
	</g>
	<g>
		<path fill="#010101" d="M36.508,47.503H10.904c-0.69,0-1.25-0.56-1.25-1.25s0.56-1.25,1.25-1.25h25.604
			c0.69,0,1.25,0.56,1.25,1.25S37.198,47.503,36.508,47.503z"/>
	</g>
</g>
</svg>
