<?xml version="1.0" encoding="utf-8"?>
<!-- Generator: Adobe Illustrator 16.0.0, SVG Export Plug-In . SVG Version: 6.00 Build 0)  -->
<!DOCTYPE svg PUBLIC "-//W3C//DTD SVG 1.1//EN" "http://www.w3.org/Graphics/SVG/1.1/DTD/svg11.dtd">
<svg version="1.1" id="Layer_1" xmlns="http://www.w3.org/2000/svg" xmlns:xlink="http://www.w3.org/1999/xlink" x="0px" y="0px"
	 width="87.5px" height="107.16px" viewBox="0 0 87.5 107.16" enable-background="new 0 0 87.5 107.16" xml:space="preserve">
<g>
	<g>
		<path fill="#010101" d="M45.77,97.675H8.734c-4.955,0-8.986-4.031-8.986-8.987v-52c0-4.955,4.031-8.986,8.986-8.986H45.77
			c4.956,0,8.987,4.031,8.987,8.986v52C54.757,93.644,50.726,97.675,45.77,97.675z M8.734,30.202c-3.576,0-6.486,2.91-6.486,6.486
			v52c0,3.577,2.91,6.487,6.486,6.487H45.77c3.577,0,6.487-2.91,6.487-6.487v-52c0-3.576-2.91-6.486-6.487-6.486H8.734z"/>
	</g>
	<g>
		<path fill="#010101" d="M42.417,30.202H12.088V19.499h30.329V30.202z M14.588,27.702h25.329v-5.703H14.588V27.702z"/>
	</g>
	<g>
		<path fill="#010101" d="M44.317,21.999H10.188v-9.914h34.129V21.999z M12.688,19.499h29.13v-4.914h-29.13V19.499z"/>
	</g>
	<g>
		<path fill="#010101" d="M54.757,84.912H-0.252V40.464h55.009V84.912z M2.248,82.412h50.009V42.964H2.248V82.412z"/>
	</g>
	<g>
		<g>
			<path fill="#010101" d="M79.285,97.675h-6.754c-4.391,0-7.963-3.572-7.963-7.963v-33.59c0-4.391,3.572-7.962,7.963-7.962h6.754
				c4.391,0,7.963,3.572,7.963,7.962v33.592C87.248,94.104,83.676,97.675,79.285,97.675z M72.531,50.66
				c-3.013,0-5.463,2.45-5.463,5.462v33.59c0,3.013,2.45,5.463,5.463,5.463h6.754c3.013,0,5.463-2.45,5.463-5.461V56.123
				c0-3.012-2.45-5.462-5.463-5.462H72.531z"/>
		</g>
		<g>
			<path fill="#010101" d="M74.732,93.18c-0.69,0-1.25-0.56-1.25-1.25s0.56-1.25,1.25-1.25c2.528,0,4.781-1.694,5.479-4.12
				c0.19-0.663,0.878-1.045,1.547-0.855c0.663,0.19,1.046,0.883,0.855,1.547C81.61,90.742,78.369,93.18,74.732,93.18z"/>
		</g>
		<g>
			<path fill="#010101" d="M85.998,74.167h-20.18c-0.69,0-1.25-0.56-1.25-1.25s0.56-1.25,1.25-1.25h20.18
				c0.69,0,1.25,0.56,1.25,1.25S86.688,74.167,85.998,74.167z"/>
		</g>
	</g>
</g>
</svg>
