<?xml version="1.0" encoding="utf-8"?>
<!-- Generator: Adobe Illustrator 16.0.0, SVG Export Plug-In . SVG Version: 6.00 Build 0)  -->
<!DOCTYPE svg PUBLIC "-//W3C//DTD SVG 1.1//EN" "http://www.w3.org/Graphics/SVG/1.1/DTD/svg11.dtd">
<svg version="1.1" id="Layer_1" xmlns="http://www.w3.org/2000/svg" xmlns:xlink="http://www.w3.org/1999/xlink" x="0px" y="0px"
	 width="80px" height="92.171px" viewBox="0 0 80 92.171" enable-background="new 0 0 80 92.171" xml:space="preserve">
<g>
	<path class="fill" fill="#010101" d="M76.698,6.04c-10.399,0-20.568-1.958-30.221-5.82L45.926,0l-0.549,0.22
		c-9.654,3.861-19.822,5.82-30.223,5.82h-3.302v31.111H4.445C1.994,37.151,0,39.145,0,41.596V66.78c0,2.451,1.994,4.445,4.445,4.445
		h13.341c3.499,5.56,8.347,10.152,14.128,13.303l14.012,7.643l14.012-7.643C72.313,77.779,80,64.83,80,50.733V6.04H76.698z
		 M19.258,66.78c0,0.816-0.663,1.482-1.479,1.482H4.445c-0.818,0-1.482-0.666-1.482-1.482V41.596c0-0.817,0.664-1.482,1.482-1.482
		h13.333c0.816,0,1.479,0.665,1.479,1.482V66.78z M58.521,81.927l-12.595,6.869l-12.594-6.869
		c-5.154-2.812-9.509-6.861-12.713-11.759c0.9-0.755,1.49-1.853,1.574-3.096l2.755,0.198c0.794,0.058,1.558,0.438,1.989,1.107
		c0.008,0.012,0.015,0.022,0.021,0.033c1.158,1.847,3.322,2.814,5.503,2.814h21.666c4.471,0,8.095-3.625,8.095-8.095V46.725
		c0-4.47-3.623-8.093-8.092-8.093H43.269c-0.987,0-1.786-0.8-1.786-1.787v-9.092c0-3.388-2.43-6.412-5.79-6.843
		c-4.065-0.522-7.544,2.646-7.544,6.61v7.632c0,3.378-2.62,6.125-5.932,6.389l0,0c-0.016-1.662-1.146-3.107-2.69-3.71l-0.995-0.388
		c-0.498-0.194-1.027-0.293-1.561-0.293h-2.155V9.003h0.337c10.584,0,20.932-1.956,30.772-5.813
		c9.843,3.858,20.19,5.813,30.773,5.813h0.338v41.73h0.001C77.037,63.743,69.941,75.697,58.521,81.927z M43.269,41.596h10.86
		c2.828,0,5.131,2.301,5.131,5.129v16.406c0,2.83-2.303,5.132-5.131,5.132H32.302c-1.178,0-2.268-0.586-2.92-1.564
		c-1.204-1.804-3.218-2.881-5.386-2.881h-1.773V44.544c4.946-0.267,8.889-4.378,8.889-9.389v-7.634c0-2.042,1.66-3.704,3.704-3.704
		c2.043,0,3.703,1.662,3.703,3.704v9.324C38.519,39.464,40.65,41.596,43.269,41.596z"/>
</g>
</svg>
