<svg id="Layer_1" data-name="Layer 1" xmlns="http://www.w3.org/2000/svg" width="28.88" height="41.92" viewBox="0 0 28.88 41.92"><defs><style>.cls-1{fill:#780200;}</style></defs><title>Icon-Location</title><path class="cls-1" d="M28.2,10.44a13.2,13.2,0,0,0-.68-1.68A14.09,14.09,0,0,0,14.24,0,14.11,14.11,0,0,0,0,13v1.79c0,.08,0,.75.06,1.08C.58,20,3.88,24.48,6.34,28.66c2.65,4.47,5.39,8.87,8.11,13.27,1.68-2.87,3.35-5.78,5-8.57.45-.82,1-1.64,1.41-2.42.3-.52.87-1,1.13-1.53,2.65-4.84,6.91-9.73,6.91-14.53v-2a14.87,14.87,0,0,0-.68-2.46Zm-13.84,9a5.12,5.12,0,0,1-4.91-3.5,4.86,4.86,0,0,1-.14-1.31V13.45c0-3.28,2.78-4.77,5.21-4.77A5.28,5.28,0,0,1,19.81,14a5.41,5.41,0,0,1-5.45,5.37Zm0,0"/></svg>